<?xml version="1.0" encoding="UTF-8"?>
<svg id="Layer_1" data-name="Layer 1" xmlns="http://www.w3.org/2000/svg" viewBox="0 0 1638.4 600">
  <defs>
    <style>
      .cls-1 {
        fill: #fff;
      }

      .cls-2 {
        fill: #0097db;
      }

      .cls-3 {
        fill: #2196d2;
      }
    </style>
  </defs>
  <g>
    <path class="cls-1" d="M701.11,220.71c-3.88,29.84-14.92,59.74-19.89,89.33-1.81,10.76-6.63,29.76,6.91,34.25,15.02,4.98,32.24-1.3,45.4-8.81l26.32-114.79h52.89l-36.72,161.18h-52.89l2.92-16.12c-15.8,8.99-30.18,19.18-49.13,20.57-39.56,2.92-57.8-13.29-53.53-53.39l25.12-109.75,1.9-2.5h50.69Z"/>
    <path class="cls-1" d="M1172.65,220.71c-5.78,25.88-13.15,51.64-18.38,77.65-2.18,10.79-7.12,27.29-3.73,37.46,6.07,18.23,43.44,8.72,54.11-1.86,8.05-37.81,18.51-75.3,25.29-113.25h52.89l-36.72,161.18h-52.89l4.41-16.11c-15.58,7.15-30.04,18.72-47.75,20.49-36.49,3.64-61.39-10.69-56.36-50.36l26.27-115.21h52.89-.03Z"/>
    <polygon class="cls-1" points="532.18 167.95 492.51 340.87 592.4 340.87 583.6 381.89 427.89 381.89 476.36 167.95 532.18 167.95"/>
    <path class="cls-1" d="M836.26,254.4c-1.17-1.16,5.58-30.96,6.57-32.27,2.75-3.63,20.64.14,22.67-1.58.7-.6,3.59-14.36,4.93-17.8,19.93-51.66,62.11-47.58,109.8-43.6l-7.48,36.5c-24.96-4.08-53-7.98-55.69,25.05h38.19c-.17,4.61-5.23,31.64-7.26,33.05l-38.13.8-29.52,127.34h-51.42l27.92-127.49h-20.57Z"/>
    <path class="cls-1" d="M1052.2,173.81l-10.29,46.9h48.47l-7.41,33.64c-7.57,1.28-46.12-2.08-49.17,1.51-.82.96-1.09,3.04-1.48,4.38-3.88,13.12-17.14,65.73-16.5,76.6,1.61,26.84,42.47,7.34,45.17,9.9-2.09,6.31-5.18,32.52-9.83,34.88-2.57,1.31-13.66,2.75-17.36,3.2-24.5,2.95-68.82,4.05-72.52-28.71,1.44-34.31,13.96-67.99,20.39-101.68h-22.04c4.16-6.48,4.52-27.58,8.04-32.27,2.96-3.94,19.12,1.07,22.11-2.86,4.59-6.06,5.22-37.5,11.72-45.46h50.69Z"/>
    <path class="cls-1" d="M1401.82,220.71l-36.25,159.47c-6.42,28.74-24.79,54.34-54.78,61.12-20.35,4.61-41.33,1.38-61.76-.78l7.36-38.1c43.73,9.28,50.58.38,60.7-38.36,9.31-35.7,16.01-72.27,24.51-108.17h-30.85l8.81-35.17h82.27Z"/>
    <path class="cls-2" d="M1638.32,301.3c.47.47-1.27,10.37-1.86,12.06-3.08,8.84-34.74,33.16-43.7,41.4-3.11,2.86-6.41,6.04-8.79,9.55h41.13c-1.12,5.71-1.73,13.01-5.14,17.59h-74.18c.34-3.66.68-8.68,1.86-12.06,2.58-7.44,38.05-35.12,46.63-42.86,2.07-1.86,4.56-4.17,5.86-6.62h-38.19l2.93-19.05h73.44,0Z"/>
    <path class="cls-2" d="M1547.23,327.68c-6.24,1.27-8.18-4.13-13.12-6.69-24.13-12.52-44.93,10.37-39.44,34.95,2.33,10.4,16.51,10.93,25.05,9.48,7.86-1.34,12.63-7.97,20.17-8.43.85.85-4.01,21.08-5.36,22.09-6.28,4.75-26.92,6.36-34.85,5.56-53.96-5.49-37.16-79.61,14.53-84.79,8.93-.89,27.18.13,34.98,4.65,5.81,3.36-3.22,17.01-1.95,23.2h0Z"/>
    <path class="cls-1" d="M1407.7,197.26h-55.82c2.72-4.7,7.73-39.57,11.01-39.57h51.42c.87,0,1.93,1.94,1.95,3.34.15,8.39-8.6,26.46-8.57,36.22h0Z"/>
    <path class="cls-1" d="M1444.42,354.05c1.06,1.06-3.67,25.15-6.62,27.85h-25.71l5.88-27.85h26.45Z"/>
  </g>
  <g>
    <path class="cls-3" d="M197.69,93.99l19.01,6.96c14.61,7.5,29.06,15.3,42.74,24.34,0,.85-12.13,8.04-14.07,9.2s-6.57,2.63-7.5,3.48c-1.78,1.7-12.91,28.59-16.07,34.31-8.89,15.84-27.74,42.43-43.51,51.31-15.77,8.89-12.75-4.33-20.17-7.11-6.26-2.4-13.06-3.32-19.78-2.86,4.95-11.9,12.06-30.22,10.28-43.12-1.08-7.73-10.28.08-14.61-2.94,6.72-18.01,14.07-37.09,23.65-53.79,3.17-5.56,9.81-16.69,14.99-20.02,5.18-3.32,3.79-1.16,6.88-1.62,6.18-.93,12.44-.31,18.24,1.85h-.08Z"/>
    <path class="cls-3" d="M250.71,289.51c21.72,12.21,43.82,25.73,64.07,40.26,15.07,10.82,38.33,28.28,48.92,43.05,10.59,14.76,7.57,12.91,2.09,22.33-12.52,21.48-62.13,41.65-85.47,50.23-12.98,4.79-32.07,11.98-45.21,14.61-2.09.39-4.17.39-6.26.31l-3.63-30.68c-27.67-31.99-57.65-66.69-68.01-108.58,12.36-7.26,21.87-19.4,26.35-33,1.31-1.47,11.36,6.34,13.6,7.57,8.81,4.87,20.02,10.2,29.83,12.52,3.94.93,14.99,3.55,17.16.39s4.56-14.61,6.57-19.01Z"/>
    <path class="cls-3" d="M349.93,285.19l-32.92-13.14c-17.7,4.25-35.78,6.96-53.79,8.81-18.01,1.85-35.63,3.71-54.02,1.31-18.39-2.4-14.14-3.17-21.17-4.33.85-15.07,1.55-29.13-7.34-42.27,11.75-5.1,25.27-12.75,35.09-21.17,2.32-2.01,13.21-12.6,12.98-14.37-.46-2.94-10.74-13.52-10.05-14.07,27.67-10.82,54.48-24.73,83.15-32.84,8.11-2.32,26.51-7.5,34-6.26,13.91,2.4,19.01,24.88,20.09,36.86,2.09,23.65-.23,49.54-2.86,73.11-1.08,9.43-1.93,18.93-3.01,28.36h-.15Z"/>
    <path class="cls-3" d="M145.61,326.07c1.55,20.32,1.39,44.75,15.22,60.9l16.85-3.94c.85,2.55,1.16,4.48,1.39,6.65,2.4,21.87,1.62,68.7-1.47,90.34-.77,5.33-3.94,20.02-6.49,24.19-4.79,7.73-16.31,2.63-22.95-.31-16.69-7.5-39.18-26.51-52.86-39.03-13.68-12.52-26.51-25.27-26.97-27.13-.7-3.17,11.82-11.13,12.83-14.68,1.78-6.18,1.93-17.31,3.32-24.42,4.95-25.89,11.44-50.93,24.73-73.88,11.44,4.56,24.88,6.96,36.4,1.39v-.08Z"/>
    <path class="cls-3" d="M84.32,288.05c1.55,9.81,5.95,17.7,11.67,25.58,5.72,7.88,4.1,3.32,4.33,4.48.46,2.16-6.96,7.96-8.73,10.05-5.56,6.65-16,21.17-17.31,29.52-.7,4.56,6.96,10.97,9.97,14.3-17.54,15.77-35.55,36.48-58.89,42.97-6.26-1.7-10.2-23.88-11.05-29.91-2.7-19.01-2.32-38.02-4.4-56.96-2.09-18.93-.15-4.33,2.09-7.73,10.66,5.18,16.54-4.17,24.27-9.58,14.84-10.43,29.91-19.24,48.07-22.72Z"/>
    <path class="cls-3" d="M129.3,214.78c-.85,1.08-9.43,3.55-11.9,4.87-6.26,3.4-12.67,9.43-17.77,14.37-3.32-5.26-4.56-11.13-8.89-15.92-7.34-8.19-15.07-10.12-15.07-10.12-.93.62-4.4,9.81-8.89,8.58-3.17-13.06-9.43-25.43-11.59-38.79-2.16-13.37,1.31-21.17,15.46-29.6,17.08-10.12,36.4-15.84,54.48-23.65-.15,6.03-4.71,10.43-4.48,16.77s5.49,17.08,7.03,23.73c1.55,6.65,6.26,43.82,1.55,49.77h.08Z"/>
    <path class="cls-3" d="M40.81,216.33c.62.62,13.37,2.7,16.15,3.48,10.66,3.09,23.65,8.89,31.84,16.38,7.65,6.96,3.09,7.26.31,14.99-2.78,7.73-5.64,17.31-4.71,26.66-12.44-.31-24.96-1.78-36.24,4.56l-1.7,15.84c-12.98-4.41-29.44-5.72-40.8-13.91-11.36-8.19-2.7-19.63,1.08-27.98s13.06-24.34,19.47-34.47c3.32-5.33,7.03-10.51,10.66-15.61,1.24-.62,3.48,9.66,3.86,10.05h.08Z"/>
    <path class="cls-1" d="M129.61,254.51c-.23,2.78,4.64,1.39,6.18,1.08,7.03-1.24,13.52-4.4,20.02-6.96,4.4,24.88-32.23,55.56-50.31,30.6-21.1-29.13,23.49-73.42,45.75-38.64,0,1.55-17.93,14.22-21.72,13.83l.08.08Z"/>
  </g>
</svg>