<?xml version="1.0" encoding="UTF-8"?>
<svg id="Layer_1" data-name="Layer 1" xmlns="http://www.w3.org/2000/svg" viewBox="0 0 11738.4 3000">
  <defs>
    <style>
      .cls-1 {
        fill: #010101;
      }

      .cls-2 {
        fill: #919091;
      }

      .cls-3 {
        fill: #1a171b;
      }

      .cls-4 {
        fill: #0097db;
      }
    </style>
  </defs>
  <path class="cls-4" d="M1802.7,1425.4c153.6,86,306.3,178.6,449.5,281.1,90.6,64.8,368.8,272.7,398,369.3,13.8,45.4,3.1,70.4-18.1,108.8-84.9,154-458.5,303.8-624.1,364.3-44.5,16.2-347.9,120.3-363.3,104.9-8.6-55.6-6.4-173.3-26.5-220.4-15.3-35.9-151.5-173.8-188.2-221.7-68.2-89.2-322-460.5-301.7-558.6,1.2-5.9,76.4-55.6,95.1-75.8,39.2-42.4,78-107.1,95.2-162.4,117.1,55.4,259.4,157.6,394.6,158.3,66.4.4,64.6-96.6,89.5-147.8Z"/>
  <path d="M5023.1,932c-27.8,213.8-106.9,428-142.5,640-13,77.1-47.5,213.2,49.5,245.4,107.6,35.7,231-9.3,325.3-63.1l188.6-822.4h378.9l-263.1,1154.8h-378.9l20.9-115.5c-113.2,64.4-216.2,137.4-352,147.4-283.4,20.9-414.1-95.2-383.5-382.5l180-786.3,13.6-17.9h363.1Z"/>
  <path d="M8401.5,932c-41.4,185.4-94.2,370-131.7,556.3-15.6,77.3-51,195.5-26.7,268.4,43.5,130.6,311.2,62.5,387.7-13.3,57.7-270.9,132.6-539.5,181.2-811.4h378.9l-263.1,1154.8h-378.9l31.6-115.4c-111.6,51.2-215.2,134.1-342.1,146.8-261.4,26.1-439.8-76.6-403.8-360.8l188.2-825.4h378.9Z"/>
  <path class="cls-4" d="M2518.2,1393.9c-8.4,9.6-201.5-92.2-237.5-93.7-67.7-2.9-250.7,50.3-337.5,60.8-198.5,23.9-397.8,32.4-592.1-20.5,4.7-109.1,10.9-208.4-53.7-303.2,63.7-25.5,136.6-66.8,192.8-107.1,30.8-22.1,136-107.2,149.8-134.8,15.2-30.3-74.4-107.9-68.9-115.1,194.3-76,382.7-173,583.9-231.3,177.8-51.5,326.1-118.8,386,108.8,26.8,101.8,19.8,203.8,19,305.7-1.5,181.2-15.5,351.3-41.7,530.6Z"/>
  <polygon points="3812.8 554 3528.6 1792.9 4244.3 1792.9 4181.2 2086.8 3065.6 2086.8 3412.9 554 3812.8 554"/>
  <path d="M5991.4,1173.4c-8.4-8.3,40-221.8,47.1-231.2,19.7-26,147.9,1,162.4-11.3,5-4.3,25.7-102.9,35.3-127.5,142.8-370.1,445-340.9,786.7-312.4l-53.6,261.5c-178.8-29.2-379.7-57.2-399,179.5h273.6c-1.2,33-37.5,226.7-52,236.8l-273.2,5.7-211.5,912.3h-368.4l200-913.4h-147.3Z"/>
  <path d="M7538.5,596l-73.7,336h347.3l-53.1,241c-54.2,9.2-330.4-14.9-352.3,10.8-5.9,6.9-7.8,21.8-10.6,31.4-27.8,94-122.8,470.9-118.2,548.8,11.5,192.3,304.3,52.6,323.6,70.9-15,45.2-37.1,233-70.4,249.9-18.4,9.4-97.9,19.7-124.4,22.9-175.5,21.1-493.1,29-519.6-205.7,10.3-245.8,100-487.1,146.1-728.5h-157.9c29.8-46.4,32.4-197.6,57.6-231.2,21.2-28.2,137,7.7,158.4-20.5,32.9-43.4,37.4-268.7,84-325.7h363.1Z"/>
  <path d="M10043.4,932l-259.7,1142.5c-46,205.9-177.6,389.3-392.5,437.9-145.8,33-296.1,9.9-442.5-5.6l52.7-273c313.3,66.5,362.4,2.7,434.9-274.8,66.7-255.8,114.7-517.8,175.6-775h-221l63.1-252h589.4Z"/>
  <path class="cls-4" d="M1044.7,1687.9c-8.2,66.4,41.9,426.1,110.1,436.9,21.4,3.4,116.6-31.9,121.5-27.5.1,19.8,8.9,38.2,10.5,57.9,14.2,167.2,12.2,474.6-11.7,639.1-8.4,57.9-29.7,200.9-99.3,205.5-169.1,11.3-569.6-385-688.1-510.2-4.1-23.4,82.7-77.2,91.7-105.8,22.9-72.9,28.4-203,47.6-288.4,33.2-147.4,79.6-286.6,155.4-417.4,82.3,32.4,179.5,50,262.2,10Z"/>
  <path class="cls-4" d="M1710.7,336.4c-14,13.7-90.5,198.4-113.1,238.9-62.3,111.6-199.6,310-311.5,371.7-65.7,36.2-88.7-23.6-151.3-46.9-45.4-16.9-94.3-23.7-142.6-20.6,23.8-50.2,44-104.8,56-159.2,7.2-32.4,39.4-163.7.3-175.8-19.6-6.1-94.8,30-86.8-4.8,20.1-88,114.7-281,161.8-363.7,107.5-189,144.3-210.1,358.3-136.5,88.9,30.6,302.1,137.3,373.3,194.6,14.3,11.5,11.8,9.5-.3,20.3-34,30.2-121.6,60-144,82.1Z"/>
  <path class="cls-4" d="M602.7,1414.8c14.3,83.2,56.4,157,115.2,216.7-45.8,59-208.2,232.7-183.6,307.6,8.5,25.7,50.1,58.1,68.3,79.5,0,17.9-236.1,211.2-270.1,234.3-32.6,22-125.5,89.2-161,70.8-92.2-47.9-93.7-554.2-104.1-660.5,7.6-26.5,35.1-4.4,56.5-5.7,61.1-3.6,90.4-50.7,138.9-83.1,107.5-71.7,209.7-135.8,340-159.5Z"/>
  <path class="cls-4" d="M926.3,887.2c-9,11-69.6,27.1-91.3,40.1-43.5,26.2-86,62.8-121.7,98.9-15.6-42-117.3-218.5-171.8-186.8-8,4.7-33,69.9-64.9,61-23.4-107.9-134.6-319.5-68.2-419.6,65.6-98.9,379.4-186.9,489-241.8-1.5,43.6-33.6,74.4-32,120.4,1.4,42.1,39.2,123,50,171.4,14.5,65,47.1,312.1,10.9,356.3Z"/>
  <path class="cls-4" d="M289.5,898c7.4,7.4,162,39.8,201.3,56.4,37.3,15.8,174.1,89.4,174.9,129.5.3,15.1-51.1,121.6-58.2,162.5-5.6,32.1-6,62.7-4.7,95.1-57.3,2.5-115.5-9.3-172.7,1.1-99.3,18-103.3,48.7-101.1,145.8-71.2-24.2-147.6-32.3-217.5-61.1-150-61.8-123.8-115.7-65-247.1,53.8-120.2,142.2-242.8,214.3-353.2,16.1,11.7,20.4,62.7,28.7,71Z"/>
  <path class="cls-4" d="M11737.8,1509.4c3.4,3.4-9.1,74.3-13.3,86.4-22.1,63.3-248.9,237.6-313.1,296.6-22.3,20.5-45.9,43.3-63,68.4h294.7c-8,40.9-12.4,93.2-36.8,126h-531.5c2.4-26.2,4.9-62.2,13.3-86.4,18.5-53.3,272.6-251.6,334.1-307.1,14.8-13.3,32.7-29.9,42-47.4h-273.6l21-136.5h526.2Z"/>
  <path class="cls-4" d="M11085.2,1698.4c-44.7,9.1-58.6-29.6-94-47.9-172.9-89.7-321.9,74.3-282.6,250.4,16.7,74.5,118.3,78.3,179.5,67.9,56.3-9.6,90.5-57.1,144.5-60.4,6.1,6.1-28.7,151-38.4,158.3-45,34-192.9,45.6-249.7,39.8-386.6-39.3-266.2-570.4,104.1-607.5,64-6.4,194.7.9,250.6,33.3,41.6,24.1-23.1,121.9-14,166.2Z"/>
  <path class="cls-3" d="M939.6,1173.4c-.4,6.8,3.3,10.1,10.5,10.5,57.9-10.8,115.8-23,168.3-52.5,9.4,149.9-133.4,335.5-297.1,270.2-198.4-79.2-87.1-443.8,143.6-416.3,33.8,4,134.7,58.9,117.5,93.9-7.2,14.6-119.2,80.8-142.8,94.2Z"/>
  <path class="cls-1" d="M10085.5,764h-399.9c19.5-33.7,55.4-283.5,78.9-283.5h368.4c6.2,0,13.8,13.9,14,23.9,1.1,60.1-61.6,189.6-61.4,259.5Z"/>
  <path class="cls-1" d="M10348.6,1887.3c7.6,7.6-26.3,180.2-47.4,199.5h-184.2l42.1-199.5h189.4Z"/>
  <path class="cls-2" d="M950.1,1183.9c-7.8,1.5-23.7,19-42.1,10.4-3.5-14.3,17.4-12.9,31.5-20.9l10.5,10.5Z"/>
</svg>