<?xml version="1.0" encoding="UTF-8"?>
<svg id="Layer_1" data-name="Layer 1" xmlns="http://www.w3.org/2000/svg" viewBox="0 0 534.05 600">
  <defs>
    <style>
      .cls-1 {
        fill: #1c191d;
      }

      .cls-2 {
        fill: #1f96d3;
      }

      .cls-3 {
        fill: #2196d2;
      }
    </style>
  </defs>
  <path class="cls-3" d="M284.75,3.27l27.38,10.02c21.04,10.8,41.85,22.04,61.56,35.06,0,1.22-17.48,11.58-20.26,13.25s-9.46,3.78-10.8,5.01c-2.56,2.45-18.59,41.19-23.15,49.42-12.8,22.82-39.96,61.11-62.67,73.91s-18.37-6.23-29.05-10.24c-9.02-3.45-18.81-4.79-28.5-4.12,7.12-17.14,17.36-43.52,14.8-62.11-1.56-11.13-14.8.11-21.04-4.23,9.68-25.94,20.26-53.43,34.06-77.47,4.56-8.01,14.14-24.04,21.59-28.83s5.45-1.67,9.91-2.34c8.91-1.34,17.92-.45,26.27,2.67h-.11Z"/>
  <path class="cls-3" d="M361.11,284.9c31.28,17.59,63.11,37.07,92.28,57.99,21.71,15.58,55.21,40.74,70.46,62,15.25,21.26,10.91,18.59,3.01,32.17-18.03,30.95-89.5,60-123.11,72.35-18.7,6.9-46.2,17.25-65.12,21.04-3.01.56-6.01.56-9.02.45l-5.23-44.19c-39.85-46.08-83.04-96.06-97.96-156.4,17.81-10.46,31.5-27.94,37.96-47.53,1.89-2.11,16.36,9.13,19.59,10.91,12.69,7.01,28.83,14.69,42.97,18.03,5.68,1.34,21.59,5.12,24.71.56s6.57-21.04,9.46-27.38Z"/>
  <path class="cls-3" d="M504.04,278.66l-47.42-18.92c-25.49,6.12-51.54,10.02-77.47,12.69s-51.32,5.34-77.81,1.89-20.37-4.56-30.5-6.23c1.22-21.71,2.23-41.97-10.57-60.89,16.92-7.35,36.4-18.37,50.54-30.5,3.34-2.89,19.03-18.14,18.7-20.7-.67-4.23-15.47-19.48-14.47-20.26,39.85-15.58,78.48-35.62,119.77-47.31,11.69-3.34,38.18-10.8,48.98-9.02,20.04,3.45,27.38,35.84,28.94,53.1,3.01,34.06-.33,71.35-4.12,105.3-1.56,13.58-2.78,27.27-4.34,40.85h-.22Z"/>
  <path class="cls-3" d="M209.73,337.55c2.23,29.28,2,64.45,21.93,87.72l24.27-5.68c1.22,3.67,1.67,6.46,2,9.57,3.45,31.5,2.34,98.96-2.11,130.13-1.11,7.68-5.68,28.83-9.35,34.84-6.9,11.13-23.49,3.78-33.06-.45-24.04-10.8-56.44-38.18-76.14-56.21s-38.18-36.4-38.85-39.07c-1-4.56,17.03-16.03,18.48-21.15,2.56-8.91,2.78-24.93,4.79-35.18,7.12-37.29,16.47-73.36,35.62-106.42,16.47,6.57,35.84,10.02,52.43,2v-.11Z"/>
  <path class="cls-3" d="M121.46,282.78c2.23,14.14,8.57,25.49,16.81,36.84s5.9,4.79,6.23,6.46c.67,3.12-10.02,11.47-12.58,14.47-8.01,9.57-23.04,30.5-24.93,42.52-1,6.57,10.02,15.81,14.36,20.59-25.27,22.71-51.2,52.54-84.82,61.89-9.02-2.45-14.69-34.4-15.92-43.08-3.9-27.38-3.34-54.77-6.34-82.04-3.01-27.27-.22-6.23,3.01-11.13,15.36,7.46,23.82-6.01,34.95-13.8,21.37-15.03,43.08-27.72,69.24-32.73Z"/>
  <path class="cls-2" d="M186.24,177.26c-1.22,1.56-13.58,5.12-17.14,7.01-9.02,4.9-18.26,13.58-25.6,20.7-4.79-7.57-6.57-16.03-12.8-22.93-10.57-11.8-21.71-14.58-21.71-14.58-1.34.89-6.34,14.14-12.8,12.36-4.56-18.81-13.58-36.62-16.7-55.88-3.12-19.26,1.89-30.5,22.26-42.63,24.6-14.58,52.43-22.82,78.48-34.06-.22,8.68-6.79,15.03-6.46,24.16s7.9,24.6,10.13,34.17,9.02,63.11,2.23,71.69h.11Z"/>
  <path class="cls-2" d="M58.79,179.48c.89.89,19.26,3.9,23.26,5.01,15.36,4.45,34.06,12.8,45.86,23.6,11.02,10.02,4.45,10.46.45,21.59-4.01,11.13-8.13,24.93-6.79,38.4-17.92-.45-35.95-2.56-52.21,6.57l-2.45,22.82c-18.7-6.34-42.41-8.24-58.77-20.04-16.36-11.8-3.9-28.27,1.56-40.3s18.81-35.06,28.05-49.65c4.79-7.68,10.13-15.14,15.36-22.49,1.78-.89,5.01,13.91,5.57,14.47h.11Z"/>
  <path class="cls-1" d="M186.69,234.47c-.33,4.01,6.68,2,8.91,1.56,10.13-1.78,19.48-6.34,28.83-10.02,6.34,35.84-46.42,80.03-72.47,44.08-30.39-41.97,33.84-105.75,65.9-55.66,0,2.23-25.82,20.48-31.28,19.93l.11.11Z"/>
</svg>