<?xml version="1.0" encoding="UTF-8"?>
<svg id="Layer_1" data-name="Layer 1" xmlns="http://www.w3.org/2000/svg" viewBox="0 0 476.4 538.9">
  <defs>
    <style>
      .cls-1 {
        fill: #1c191d;
      }

      .cls-2 {
        fill: #1f96d3;
      }

      .cls-3 {
        fill: #2196d2;
      }
    </style>
  </defs>
  <path class="cls-3" d="M254.5,2.9l24.6,9c18.9,9.7,37.6,19.8,55.3,31.5,0,1.1-15.7,10.4-18.2,11.9s-8.5,3.4-9.7,4.5c-2.3,2.2-16.7,37-20.8,44.4-11.5,20.5-35.9,54.9-56.3,66.4s-16.5-5.6-26.1-9.2c-8.1-3.1-16.9-4.3-25.6-3.7,6.4-15.4,15.6-39.1,13.3-55.8-1.4-10-13.3.1-18.9-3.8,8.7-23.3,18.2-48,30.6-69.6,4.1-7.2,12.7-21.6,19.4-25.9s4.9-1.5,8.9-2.1c8-1.2,16.1-.4,23.6,2.4Z"/>
  <path class="cls-3" d="M323.1,255.9c28.1,15.8,56.7,33.3,82.9,52.1,19.5,14,49.6,36.6,63.3,55.7s9.8,16.7,2.7,28.9c-16.2,27.8-80.4,53.9-110.6,65-16.8,6.2-41.5,15.5-58.5,18.9-2.7.5-5.4.5-8.1.4l-4.7-39.7c-35.8-41.4-74.6-86.3-88-140.5,16-9.4,28.3-25.1,34.1-42.7,1.7-1.9,14.7,8.2,17.6,9.8,11.4,6.3,25.9,13.2,38.6,16.2,5.1,1.2,19.4,4.6,22.2.5s5.9-18.9,8.5-24.6Z"/>
  <path class="cls-3" d="M451.5,250.3l-42.6-17c-22.9,5.5-46.3,9-69.6,11.4s-46.1,4.8-69.9,1.7-18.3-4.1-27.4-5.6c1.1-19.5,2-37.7-9.5-54.7,15.2-6.6,32.7-16.5,45.4-27.4,3-2.6,17.1-16.3,16.8-18.6-.6-3.8-13.9-17.5-13-18.2,35.8-14,70.5-32,107.6-42.5,10.5-3,34.3-9.7,44-8.1,18,3.1,24.6,32.2,26,47.7,2.7,30.6-.3,64.1-3.7,94.6-1.4,12.2-2.5,24.5-3.9,36.7Z"/>
  <path class="cls-3" d="M187.1,303.2c2,26.3,1.8,57.9,19.7,78.8l21.8-5.1c1.1,3.3,1.5,5.8,1.8,8.6,3.1,28.3,2.1,88.9-1.9,116.9-1,6.9-5.1,25.9-8.4,31.3-6.2,10-21.1,3.4-29.7-.4-21.6-9.7-50.7-34.3-68.4-50.5s-34.3-32.7-34.9-35.1c-.9-4.1,15.3-14.4,16.6-19,2.3-8,2.5-22.4,4.3-31.6,6.4-33.5,14.8-65.9,32-95.6,14.8,5.9,32.2,9,47.1,1.8Z"/>
  <path class="cls-3" d="M107.8,254c2,12.7,7.7,22.9,15.1,33.1s5.3,4.3,5.6,5.8c.6,2.8-9,10.3-11.3,13-7.2,8.6-20.7,27.4-22.4,38.2-.9,5.9,9,14.2,12.9,18.5-22.7,20.4-46,47.2-76.2,55.6-8.1-2.2-13.2-30.9-14.3-38.7-3.5-24.6-3-49.2-5.7-73.7s-.2-5.6,2.7-10c13.8,6.7,21.4-5.4,31.4-12.4,19.2-13.5,38.7-24.9,62.2-29.4Z"/>
  <path class="cls-2" d="M166,159.2c-1.1,1.4-12.2,4.6-15.4,6.3-8.1,4.4-16.4,12.2-23,18.6-4.3-6.8-5.9-14.4-11.5-20.6-9.5-10.6-19.5-13.1-19.5-13.1-1.2.8-5.7,12.7-11.5,11.1-4.1-16.9-12.2-32.9-15-50.2s1.7-27.4,20-38.3c22.1-13.1,47.1-20.5,70.5-30.6-.2,7.8-6.1,13.5-5.8,21.7s7.1,22.1,9.1,30.7,8.1,56.7,2,64.4Z"/>
  <path class="cls-2" d="M51.5,161.2c.8.8,17.3,3.5,20.9,4.5,13.8,4,30.6,11.5,41.2,21.2,9.9,9,4,9.4.4,19.4s-7.3,22.4-6.1,34.5c-16.1-.4-32.3-2.3-46.9,5.9l-2.2,20.5c-16.8-5.7-38.1-7.4-52.8-18s-3.5-25.4,1.4-36.2,16.9-31.5,25.2-44.6c4.3-6.9,9.1-13.6,13.8-20.2,1.6-.8,4.5,12.5,5,13Z"/>
  <path class="cls-1" d="M166.4,210.6c-.3,3.6,6,1.8,8,1.4,9.1-1.6,17.5-5.7,25.9-9,5.7,32.2-41.7,71.9-65.1,39.6-27.3-37.7,30.4-95,59.2-50,0,2-23.2,18.4-28.1,17.9Z"/>
</svg>