<?xml version="1.0" encoding="UTF-8"?>
<svg id="Layer_1" data-name="Layer 1" xmlns="http://www.w3.org/2000/svg" viewBox="0 0 378.55 600">
  <defs>
    <style>
      .cls-1 {
        fill: #fff;
      }

      .cls-2 {
        fill: #1f96d3;
      }

      .cls-3 {
        fill: #0097db;
      }

      .cls-4 {
        fill: #2196d2;
      }
    </style>
  </defs>
  <g>
    <path class="cls-4" d="M201.84,2.32l19.41,7.1c14.91,7.65,29.67,15.62,43.63,24.85,0,.87-12.39,8.21-14.36,9.39s-6.71,2.68-7.65,3.55c-1.81,1.74-13.18,29.19-16.41,35.03-9.07,16.18-28.33,43.32-44.42,52.39-16.1,9.07-13.02-4.42-20.59-7.26-6.39-2.45-13.33-3.39-20.2-2.92,5.05-12.15,12.31-30.85,10.49-44.03-1.1-7.89-10.49.08-14.91-3,6.86-18.38,14.36-37.87,24.14-54.92,3.24-5.68,10.02-17.04,15.31-20.44s3.87-1.18,7.02-1.66c6.31-.95,12.7-.32,18.62,1.89h-.08Z"/>
    <path class="cls-4" d="M255.97,201.95c22.17,12.47,44.74,26.27,65.41,41.11,15.39,11.05,39.14,28.88,49.95,43.95,10.81,15.07,7.73,13.18,2.13,22.8-12.78,21.94-63.44,42.53-87.27,51.29-13.26,4.89-32.75,12.23-46.16,14.91-2.13.39-4.26.39-6.39.32l-3.71-31.32c-28.25-32.67-58.86-68.09-69.44-110.86,12.62-7.42,22.33-19.8,26.91-33.69,1.34-1.5,11.6,6.47,13.89,7.73,9,4.97,20.44,10.42,30.46,12.78,4.02.95,15.31,3.63,17.52.39s4.66-14.91,6.71-19.41Z"/>
    <path class="cls-4" d="M357.28,197.53l-33.61-13.41c-18.07,4.34-36.53,7.1-54.92,9s-36.37,3.79-55.15,1.34c-18.78-2.45-14.44-3.24-21.62-4.42.87-15.39,1.58-29.75-7.5-43.16,11.99-5.21,25.8-13.02,35.82-21.62,2.37-2.05,13.49-12.86,13.26-14.68-.47-3-10.97-13.81-10.26-14.36,28.25-11.05,55.63-25.25,84.9-33.53,8.28-2.37,27.06-7.65,34.72-6.39,14.2,2.45,19.41,25.41,20.51,37.64,2.13,24.14-.24,50.58-2.92,74.64-1.1,9.63-1.97,19.33-3.08,28.96h-.16Z"/>
    <path class="cls-4" d="M148.66,239.27c1.58,20.75,1.42,45.69,15.54,62.18l17.2-4.02c.87,2.6,1.18,4.58,1.42,6.79,2.45,22.33,1.66,70.15-1.5,92.24-.79,5.44-4.02,20.44-6.63,24.7-4.89,7.89-16.65,2.68-23.43-.32-17.04-7.65-40-27.06-53.97-39.85-13.97-12.78-27.06-25.8-27.54-27.7-.71-3.24,12.07-11.36,13.1-14.99,1.81-6.31,1.97-17.67,3.39-24.93,5.05-26.43,11.68-52,25.25-75.43,11.68,4.66,25.41,7.1,37.16,1.42v-.08Z"/>
    <path class="cls-4" d="M86.09,200.45c1.58,10.02,6.08,18.07,11.91,26.12,5.84,8.05,4.18,3.39,4.42,4.58.47,2.21-7.1,8.13-8.92,10.26-5.68,6.79-16.33,21.62-17.67,30.14-.71,4.66,7.1,11.2,10.18,14.6-17.91,16.1-36.3,37.24-60.12,43.87-6.39-1.74-10.42-24.38-11.28-30.54-2.76-19.41-2.37-38.82-4.5-58.15-2.13-19.33-.16-4.42,2.13-7.89,10.89,5.29,16.89-4.26,24.78-9.78,15.15-10.65,30.54-19.65,49.08-23.2Z"/>
    <path class="cls-2" d="M132.01,125.65c-.87,1.1-9.63,3.63-12.15,4.97-6.39,3.47-12.94,9.63-18.15,14.68-3.39-5.37-4.66-11.36-9.07-16.25-7.5-8.36-15.39-10.34-15.39-10.34-.95.63-4.5,10.02-9.07,8.76-3.24-13.33-9.63-25.96-11.84-39.61s1.34-21.62,15.78-30.22c17.44-10.34,37.16-16.18,55.63-24.14-.16,6.15-4.81,10.65-4.58,17.12s5.6,17.44,7.18,24.22,6.39,44.74,1.58,50.81h.08Z"/>
    <path class="cls-2" d="M41.67,127.22c.63.63,13.65,2.76,16.49,3.55,10.89,3.16,24.14,9.07,32.51,16.73,7.81,7.1,3.16,7.42.32,15.31s-5.76,17.67-4.81,27.22c-12.7-.32-25.49-1.81-37.01,4.66l-1.74,16.18c-13.26-4.5-30.06-5.84-41.66-14.2-11.6-8.36-2.76-20.04,1.1-28.56s13.33-24.85,19.88-35.19c3.39-5.44,7.18-10.73,10.89-15.94,1.26-.63,3.55,9.86,3.95,10.26h.08Z"/>
    <path class="cls-1" d="M132.33,166.2c-.24,2.84,4.73,1.42,6.31,1.1,7.18-1.26,13.81-4.5,20.44-7.1,4.5,25.41-32.9,56.73-51.37,31.25-21.54-29.75,23.99-74.96,46.71-39.45,0,1.58-18.31,14.52-22.17,14.12l.08.08Z"/>
  </g>
  <g>
    <path class="cls-1" d="M85.44,530.28c-1.21,9.33-4.67,18.68-6.22,27.94-.57,3.37-2.07,9.31,2.16,10.71,4.7,1.56,10.08-.41,14.2-2.75l8.23-35.9h16.54l-11.48,50.41h-16.54l.91-5.04c-4.94,2.81-9.44,6-15.36,6.43-12.37.91-18.07-4.16-16.74-16.7l7.86-34.32.59-.78h15.85Z"/>
    <path class="cls-1" d="M232.9,530.28c-1.81,8.09-4.11,16.15-5.75,24.28-.68,3.37-2.23,8.53-1.17,11.72,1.9,5.7,13.58,2.73,16.92-.58,2.52-11.82,5.79-23.55,7.91-35.42h16.54l-11.48,50.41h-16.54l1.38-5.04c-4.87,2.23-9.39,5.85-14.93,6.41-11.41,1.14-19.2-3.34-17.63-15.75l8.21-36.03h16.54,0Z"/>
    <polygon class="cls-1" points="32.61 513.78 20.21 567.86 51.45 567.86 48.69 580.69 0 580.69 15.16 513.78 32.61 513.78"/>
    <path class="cls-1" d="M127.71,540.82c-.37-.36,1.75-9.68,2.06-10.09.86-1.13,6.46.04,7.09-.49.22-.19,1.12-4.49,1.54-5.57,6.23-16.15,19.42-14.88,34.34-13.64l-2.34,11.41c-7.8-1.27-16.57-2.5-17.42,7.83h11.94c-.05,1.44-1.64,9.9-2.27,10.34l-11.92.25-9.23,39.82h-16.08l8.73-39.87h-6.43Z"/>
    <path class="cls-1" d="M195.24,515.62l-3.22,14.67h15.16l-2.32,10.52c-2.37.4-14.42-.65-15.38.47-.26.3-.34.95-.46,1.37-1.21,4.1-5.36,20.55-5.16,23.95.5,8.39,13.28,2.3,14.12,3.09-.65,1.97-1.62,10.17-3.07,10.91-.8.41-4.27.86-5.43,1-7.66.92-21.52,1.27-22.68-8.98.45-10.73,4.36-21.26,6.38-31.8h-6.89c1.3-2.03,1.41-8.62,2.51-10.09.93-1.23,5.98.34,6.91-.89,1.44-1.89,1.63-11.73,3.67-14.22h15.85Z"/>
    <path class="cls-1" d="M304.57,530.28l-11.34,49.87c-2.01,8.99-7.75,16.99-17.13,19.11-6.36,1.44-12.92.43-19.31-.24l2.3-11.92c13.68,2.9,15.82.12,18.98-11.99,2.91-11.17,5.01-22.6,7.66-33.83h-9.65l2.75-11h25.73Z"/>
    <path class="cls-3" d="M378.53,555.49c.15.15-.4,3.24-.58,3.77-.96,2.76-10.86,10.37-13.67,12.95-.97.89-2,1.89-2.75,2.99h12.86c-.35,1.79-.54,4.07-1.61,5.5h-23.2c.1-1.14.21-2.71.58-3.77.81-2.33,11.9-10.98,14.58-13.4.65-.58,1.43-1.31,1.83-2.07h-11.94l.92-5.96h22.97,0Z"/>
    <path class="cls-3" d="M350.04,563.74c-1.95.4-2.56-1.29-4.1-2.09-7.55-3.92-14.05,3.24-12.34,10.93.73,3.25,5.16,3.42,7.83,2.96,2.46-.42,3.95-2.49,6.31-2.64.27.27-1.25,6.59-1.68,6.91-1.96,1.48-8.42,1.99-10.9,1.74-16.87-1.72-11.62-24.9,4.54-26.52,2.79-.28,8.5.04,10.94,1.45,1.82,1.05-1.01,5.32-.61,7.25h0Z"/>
    <path class="cls-1" d="M306.41,522.95h-17.46c.85-1.47,2.42-12.37,3.44-12.37h16.08c.27,0,.6.61.61,1.04.05,2.62-2.69,8.28-2.68,11.33h0Z"/>
    <path class="cls-1" d="M317.89,571.98c.33.33-1.15,7.87-2.07,8.71h-8.04l1.84-8.71h8.27Z"/>
  </g>
</svg>